PathFileType	4	(X/Y/Z)	./resultDataOpenSim/trcMotMarkerGrf/sub09/qtm-14-04.trc
DataRate	CameraRate	NumFrames	NumMarkers	Units	OrigDataRate	OrigDataStartFrame	OrigNumFrames
250.000000	250.000000	14	24	m	250.000000	1	479
Frame#	Time	L.Toe.Tip			R.Toe.Tip			L.Ankle.Lat			R.Ankle.Lat			L.Ankle.Med			R.Ankle.Med			L.Heel			R.Heel			L.Knee.Lat			R.Knee.Lat			L.Knee.Med			R.Knee.Med			L.Thigh.Upper			R.Thigh.Upper			L.ASIS			R.ASIS			V.Sacral			L.Acromium			R.Acromium			C7			L.Elbow			R.Elbow			L.Wrist.Lat			R.Wrist.Lat
		X1	Y1	Z1	X2	Y2	Z2	X3	Y3	Z3	X4	Y4	Z4	X5	Y5	Z5	X6	Y6	Z6	X7	Y7	Z7	X8	Y8	Z8	X9	Y9	Z9	X10	Y10	Z10	X11	Y11	Z11	X12	Y12	Z12	X13	Y13	Z13	X14	Y14	Z14	X15	Y15	Z15	X16	Y16	Z16	X17	Y17	Z17	X18	Y18	Z18	X19	Y19	Z19	X20	Y20	Z20	X21	Y21	Z21	X22	Y22	Z22	X23	Y23	Z23	X24	Y24	Z24

1	0	-1.6005755	0.036348409	-0.036336297	-0.94827137	0.11639347	0.12031256	-1.74457	0.081045541	-0.065933831	-1.0967441	0.082124131	0.13904917	-1.7223651	0.095064199	0.029842764	-1.0886598	0.12174762	0.048427526	NaN	NaN	NaN	-1.1411603	0.037428085	0.080126278	-1.5881912	0.46859624	-0.12466022	-1.2172267	0.52570162	0.1747919	-1.5860793	0.46938829	0.0015048997	-1.2054234	0.50765938	0.049146517	-1.4737198	0.87365581	-0.16659081	-1.4315679	0.86597166	0.20381377	-1.365994	0.94539525	-0.11513966	-1.351111	0.94840929	0.12469475	-1.5198565	1.0095292	0.02137034	-1.3242909	1.3972863	-0.15081641	-1.3593317	1.4066309	0.17763144	-1.4068607	1.4558848	0.0068650505	-1.4293024	1.0330428	-0.23807784	NaN	NaN	NaN	-1.1711345	0.94172663	-0.20072145	-1.395014	0.83059737	0.29169718
2	0.004	-1.6005207	0.036297948	-0.036343729	-0.9328067	0.12125421	0.12145779	-1.7441519	0.081955021	-0.065707865	-1.0804755	0.08330821	0.13989178	-1.7210722	0.096050499	0.029722786	-1.073082	0.12310786	0.049355323	NaN	NaN	NaN	-1.1235823	0.03751862	0.081007557	-1.5855723	0.46868529	-0.12458571	-1.210684	0.52421313	0.17536746	-1.5838198	0.46934176	0.0017187088	-1.1990901	0.50602558	0.049309894	-1.4681989	0.8726532	-0.16629131	-1.4253078	0.86427901	0.20393464	-1.360162	0.944076	-0.11516124	-1.3446613	0.94697623	0.12472596	-1.5136813	1.00804	0.021736615	-1.3182212	1.3960673	-0.15033972	-1.353492	1.4051613	0.17802575	-1.4008556	1.454692	0.0081318098	-1.4221859	1.0313922	-0.23743991	NaN	NaN	NaN	-1.1636539	0.9419969	-0.19986275	-1.3896104	0.82900699	0.29226072
3	0.008	-1.600462	0.036248647	-0.036351072	-0.91755181	0.12609966	0.12264138	-1.7437259	0.082916368	-0.065526682	-1.0645043	0.084536574	0.14071073	-1.7197662	0.09705002	0.029586695	-1.057757	0.12452075	0.050258971	NaN	NaN	NaN	-1.1062615	0.037687375	0.08198913	-1.5828061	0.46876466	-0.1245475	-1.2038264	0.52273398	0.17599005	-1.5812236	0.46930046	0.001875416	-1.1928025	0.50435539	0.049494648	-1.4626761	0.87163809	-0.1660128	-1.4190128	0.86259461	0.20404794	-1.3543191	0.94276835	-0.11517923	-1.3381626	0.94552041	0.12476008	-1.5075708	1.006495	0.022038872	-1.3121454	1.394855	-0.14987428	-1.3476059	1.4037036	0.17844557	-1.3948037	1.453582	0.0096077869	-1.4150149	1.0297968	-0.23678637	NaN	NaN	NaN	-1.1561931	0.94223878	-0.19901639	-1.384166	0.82741191	0.29281498
4	0.012	-1.6003979	0.036196927	-0.036358784	-0.90266746	0.13088943	0.12385444	-1.7433001	0.083935794	-0.065410395	-1.0489297	0.085861753	0.14152046	-1.7184743	0.098057919	0.029426923	-1.0428451	0.12600032	0.051121346	NaN	NaN	NaN	-1.0893298	0.037980438	0.083162591	-1.5798227	0.46881888	-0.12454169	-1.1969857	0.52119995	0.17656964	-1.5781749	0.46925893	0.0019494912	-1.1865766	0.50263877	0.049706748	-1.457149	0.87061179	-0.16576015	-1.412639	0.86091812	0.20415499	-1.3484645	0.94148079	-0.11520198	-1.3315908	0.94404574	0.12479654	-1.501508	1.0049035	0.022291179	-1.3060421	1.3936448	-0.14941591	-1.3416372	1.4022574	0.17889243	-1.3886825	1.4525524	0.011246532	-1.4078239	1.0282711	-0.23614873	NaN	NaN	NaN	-1.1487499	0.94241753	-0.19817519	-1.3786364	0.82581487	0.29335626
5	0.016	-1.6003262	0.036137128	-0.036368631	-0.88828697	0.13556775	0.12500416	-1.74288	0.08499359	-0.065362262	-1.0336286	0.087363338	0.14238488	-1.7172514	0.099061328	0.02924619	-1.0284359	0.12752538	0.051936923	NaN	NaN	NaN	-1.0728592	0.038401417	0.084555317	-1.5766178	0.46883413	-0.12454724	-1.1908404	0.51952956	0.17694529	-1.5747505	0.46921044	0.0019553933	-1.1804116	0.50089328	0.04993403	-1.4516254	0.869585	-0.16552117	-1.4061437	0.85924714	0.20426848	-1.3426147	0.94022023	-0.11524799	-1.3249568	0.94257354	0.12482605	-1.4954213	1.0033302	0.022570742	-1.2999043	1.3924317	-0.1489578	-1.3355862	1.4008184	0.17935389	-1.382525	1.451514	0.01273297	-1.4007056	1.0267852	-0.23556339	NaN	NaN	NaN	-1.1413316	0.94251169	-0.19733121	-1.3730269	0.82422493	0.29388673
6	0.02	-1.6002442	0.036071799	-0.036384411	-0.87448483	0.14009718	0.12595592	-1.7424495	0.086088145	-0.06538099	-1.0182691	0.08917125	0.14341412	-1.7161393	0.10005933	0.029045653	-1.0145589	0.12906605	0.052706595	NaN	NaN	NaN	-1.0569406	0.038921812	0.08604329	-1.5731972	0.46880289	-0.12455599	-1.1853862	0.51775908	0.17713491	-1.5710799	0.46914353	0.0019322367	-1.1742857	0.49914006	0.050161713	-1.446094	0.86856763	-0.1652748	-1.3994955	0.8575805	0.20439342	-1.3367696	0.93899086	-0.1153261	-1.318285	0.9411203	0.12483589	-1.4892673	1.0018154	0.022923805	-1.2937339	1.3912157	-0.14849976	-1.3294706	1.3993849	0.17982111	-1.3763709	1.4503917	0.013820263	-1.3936952	1.0253104	-0.23503066	NaN	NaN	NaN	-1.1339531	0.94252887	-0.19648603	-1.3673765	0.82264683	0.29441172
7	0.024	-1.6001526	0.036014061	-0.036409332	-0.86127954	0.14443745	0.1266402	-1.7419787	0.087231096	-0.065466494	-1.0026986	0.091317299	0.14465483	-1.7151401	0.10106072	0.0288175	-1.0012143	0.13059196	0.053420547	NaN	NaN	NaN	-1.0417095	0.03950116	0.087375984	-1.5695659	0.46872417	-0.12456998	-1.1797859	0.51605755	0.17737187	-1.5672568	0.46903495	0.0019148328	-1.168161	0.49739746	0.050391558	-1.4405146	0.8675667	-0.16500269	-1.3926894	0.85592235	0.20452588	-1.3309079	0.93779071	-0.11542835	-1.3116029	0.93969527	0.12481913	-1.4830603	1.000348	0.023337346	-1.2875321	1.3900016	-0.14804041	-1.3233027	1.3979619	0.1802923	-1.3702276	1.4491995	0.01453623	-1.3867628	1.0238525	-0.23453285	NaN	NaN	NaN	-1.1266263	0.94249011	-0.19564233	-1.3617064	0.82108351	0.29493144
8	0.028	-1.6000515	0.035975907	-0.036443873	-0.84866656	0.14852102	0.12709067	-1.7414278	0.088431895	-0.065630829	-0.98747036	0.09351283	0.14591326	-1.7142146	0.10207775	0.028552352	-0.98839856	0.13206609	0.054059518	NaN	NaN	NaN	-1.0272737	0.040112013	0.088346753	-1.5657309	0.46860519	-0.12458857	-1.1733613	0.51456503	0.17784135	-1.5633076	0.46886482	0.0019131019	-1.161993	0.49569315	0.050644204	-1.4348436	0.86658896	-0.1646957	-1.3857425	0.8542781	0.20467195	-1.325005	0.93661438	-0.11554293	-1.3049128	0.93830158	0.12477735	-1.4768114	0.99890607	0.023799488	-1.2812962	1.3888004	-0.14757185	-1.3170846	1.3965566	0.18077052	-1.3640796	1.4479938	0.015043264	-1.3798677	1.0224318	-0.23404254	NaN	NaN	NaN	-1.1193509	0.94240191	-0.19479862	-1.356006	0.81953963	0.29543871
9	0.032	-1.599939	0.035959363	-0.036488038	-0.8366517	0.15226293	0.12738783	-1.7407595	0.08970112	-0.065891841	-0.97352296	0.095311705	0.14681952	-1.7133097	0.10312886	0.028245449	-0.9761261	0.1334454	0.05461446	NaN	NaN	NaN	-1.0136638	0.040740506	0.088911972	-1.5616958	0.46845773	-0.12460496	-1.1661722	0.51328918	0.17852555	-1.5592237	0.46863669	0.0019175712	-1.1557352	0.49407391	0.050940157	-1.42908	0.86564487	-0.1643517	-1.3786828	0.85265514	0.2048436	-1.3190433	0.93546817	-0.11565896	-1.2981881	0.93694189	0.12471996	-1.470508	0.99748285	0.024323984	-1.2750201	1.3876281	-0.14708517	-1.3108201	1.3951715	0.18125804	-1.3579161	1.446806	0.015464657	-1.3729819	1.0210577	-0.23351646	NaN	NaN	NaN	-1.1121209	0.94225015	-0.19395267	-1.3502497	0.81801616	0.29592705
10	0.036	-1.5998151	0.035958982	-0.036542602	-0.82526477	0.15558104	0.12760709	-1.7399917	0.091045936	-0.066244327	-0.96118597	0.096553405	0.1471761	-1.7123921	0.10423101	0.027893333	-0.96440254	0.1347051	0.055093485	NaN	NaN	NaN	-1.0008534	0.041347339	0.089180847	-1.5574552	0.46828847	-0.12461474	-1.1585513	0.51218419	0.17932458	-1.5550142	0.46837608	0.0019166265	-1.1493381	0.49259707	0.051280822	-1.4232665	0.86474456	-0.16397015	-1.3715191	0.85106899	0.20504859	-1.3130122	0.93437026	-0.11576487	-1.2914101	0.93562261	0.12466024	-1.4641485	0.99608106	0.024919385	-1.2686959	1.3864986	-0.14657828	-1.3045049	1.3938092	0.18175338	-1.3517341	1.4456383	0.015850902	-1.3660934	1.0197278	-0.2329293	NaN	NaN	NaN	-1.1049347	0.94201959	-0.19310533	-1.3444047	0.81650756	0.29639886
11	0.04	-1.5996809	0.03596867	-0.036608068	-0.81455167	0.1584105	0.12780423	-1.7392306	0.092463531	-0.066653581	-0.95003964	0.097377871	0.14712328	-1.7114512	0.1053904	0.027491617	-0.95321559	0.1358324	0.055507129	NaN	NaN	NaN	-0.9888139	0.041847179	0.08931117	-1.5530068	0.46809956	-0.12462681	-1.1506655	0.51121923	0.18017901	-1.550679	0.4681094	0.0018987654	-1.1427478	0.49130917	0.051650877	-1.4174322	0.86389099	-0.16354679	-1.364235	0.84953362	0.20529003	-1.3069091	0.93332908	-0.11585547	-1.284584	0.93434722	0.12461036	-1.4577524	0.99470595	0.025563546	-1.2623255	1.3854186	-0.14605917	-1.2981258	1.3924742	0.18225413	-1.3455225	1.4444895	0.01623206	-1.3592097	1.0184409	-0.2323066	NaN	NaN	NaN	-1.0977968	0.94170784	-0.19225787	-1.33844	0.81501147	0.29686417
12	0.044	-1.5995347	0.035985599	-0.036684482	-0.80453774	0.16070114	0.1280179	-1.7386002	0.093944804	-0.067087092	-0.93963581	0.097898641	0.14694219	-1.7104727	0.10661422	0.02703712	-0.94265278	0.1367669	0.055847927	NaN	NaN	NaN	-0.97756674	0.042155095	0.089370048	-1.5483679	0.46789613	-0.12467177	-1.1427118	0.51033971	0.18102151	-1.5461482	0.46784209	0.0018467102	-1.1359103	0.49023202	0.052033414	-1.4115607	0.86307782	-0.16307688	-1.3568225	0.84805076	0.20556399	-1.3007405	0.93233276	-0.1159352	-1.2777216	0.933114	0.12457936	-1.4513515	0.99336044	0.02617694	-1.255927	1.3843861	-0.14554	-1.2916806	1.3911667	0.18275838	-1.3392624	1.4433577	0.016643404	-1.3523455	1.0172055	-0.23168539	NaN	NaN	NaN	-1.090713	0.9413202	-0.19140795	-1.3323597	0.81354108	0.29733051
13	0.048	-1.5993715	0.036008588	-0.036770769	-0.79519215	0.16239994	0.12827271	-1.738123	0.095485681	-0.0675438	-0.9298718	0.098117272	0.14681142	-1.7094277	0.10791568	0.026527207	-0.93291244	0.13739697	0.056094875	NaN	NaN	NaN	-0.96715617	0.042249371	0.089325042	-1.5435884	0.46767831	-0.1247831	-1.135026	0.50947124	0.1817373	-1.5413585	0.46755258	0.0017508465	-1.1287883	0.48936248	0.052416586	-1.4056167	0.86229404	-0.16256636	-1.3493047	0.8466155	0.20586573	-1.2945089	0.93136258	-0.11600749	-1.2708344	0.93191931	0.12457262	-1.4450048	0.99204175	0.026597459	-1.2495184	1.3833918	-0.14502364	-1.2851775	1.3898849	0.18326802	-1.3329299	1.4422404	0.017145175	-1.3455054	1.0160323	-0.23105735	-1.4325377	1.0570093	0.25650756	-1.0836843	0.94086278	-0.19055119	-1.3262241	0.81211828	0.29779658
14	0.052	-1.5991884	0.036035677	-0.036864466	-0.78647381	0.16345029	0.12857327	-1.7376884	0.097097208	-0.068051106	-0.92084085	0.098025117	0.1467497	-1.7082987	0.10929801	0.025957137	-0.92407431	0.13764248	0.056246194	NaN	NaN	NaN	-0.95755721	0.042179387	0.0891645	-1.538784	0.46743051	-0.12493336	-1.1278213	0.50858679	0.18222856	-1.5363469	0.46721098	0.0016247838	-1.1213738	0.48867713	0.052788335	-1.3995732	0.86153183	-0.1620297	-1.3417193	0.8452312	0.20619986	-1.2881987	0.93040774	-0.11606437	-1.2639423	0.93075973	0.12459259	-1.4387652	0.99075261	0.026681192	-1.2430998	1.3824255	-0.14449964	-1.2786165	1.3886306	0.1837898	-1.3264695	1.4411551	0.017904935	-1.3386874	1.0149243	-0.23038955	-1.4261409	1.055825	0.25674907	-1.0767032	0.9403426	-0.18968621	-1.3201059	0.81075279	0.29825718
